<svg width="50" height="32" viewBox="0 0 50 32" fill="none" xmlns="http://www.w3.org/2000/svg">
<path d="M28.5661 19.2337C28.5661 20.5454 27.5151 21.5948 26.2012 21.5948C24.925 21.5948 23.8739 20.5829 23.8364 19.3086C23.8364 19.2711 23.8364 19.2711 23.8364 19.2337V7.35294H14.2643V19.1962C14.2643 19.2337 14.2643 19.2337 14.2643 19.2711C14.2643 20.5454 13.2132 21.5948 11.937 21.5948C10.6231 21.5948 9.57208 20.5454 9.57208 19.2337V7.35294H0V19.1962C0 25.7549 5.33034 31.1144 11.937 31.1144C14.6021 31.1144 17.0796 30.2149 19.0691 28.7532C21.0586 30.2524 23.5361 31.1144 26.2012 31.1144C32.7703 31.1144 38.1382 25.7924 38.1382 19.1962V7.35294H28.5661V19.2337Z" fill="black"/>
<path d="M45.2328 21.4003C42.6052 21.4003 40.4656 23.5366 40.4656 26.1601C40.4656 28.7836 42.6052 30.9199 45.2328 30.9199C47.8605 30.9199 50.0001 28.7836 50.0001 26.1601C50.0001 23.4991 47.898 21.4003 45.2328 21.4003Z" fill="black"/>
<path d="M50.0001 4.75979C50.0001 2.13628 47.8605 0 45.2328 0C42.6052 0 40.4656 2.13628 40.4656 4.75979V14.2419C40.4656 16.8654 42.6052 19.0017 45.2328 19.0017C47.8605 19.0017 50.0001 16.8654 50.0001 14.2419V4.75979Z" fill="black"/>
</svg>
