<svg width="68" height="42" viewBox="0 0 68 42" fill="none" xmlns="http://www.w3.org/2000/svg">
<g clip-path="url(#clip0_169_134)">
<path d="M38.8499 25.8422C38.8499 27.6262 37.4204 29.0534 35.6336 29.0534C33.8979 29.0534 32.4685 27.6772 32.4174 25.9442C32.4174 25.8932 32.4174 25.8932 32.4174 25.8422V9.68448H19.3994V25.7913C19.3994 25.8422 19.3994 25.8422 19.3994 25.8932C19.3994 27.6262 17.97 29.0534 16.2342 29.0534C14.4474 29.0534 13.018 27.6262 13.018 25.8422V9.68448H0V25.7913C0 34.7112 7.24925 42 16.2342 42C19.8589 42 23.2282 40.7767 25.9339 38.7888C28.6396 40.8277 32.009 42 35.6336 42C44.5676 42 51.8679 34.7621 51.8679 25.7913V9.68448H38.8499V25.8422Z" fill="#0A2328"/>
<path d="M61.5167 29.1044C57.9431 29.1044 55.0332 32.0097 55.0332 35.5777C55.0332 39.1456 57.9431 42.051 61.5167 42.051C65.0903 42.051 68.0002 39.1456 68.0002 35.5777C68.0002 31.9587 65.1413 29.1044 61.5167 29.1044Z" fill="#0A2328"/>
<path d="M68.0002 6.4733C68.0002 2.90534 65.0903 0 61.5167 0C57.9431 0 55.0332 2.90534 55.0332 6.4733V19.3689C55.0332 22.9369 57.9431 25.8422 61.5167 25.8422C65.0903 25.8422 68.0002 22.9369 68.0002 19.3689V6.4733Z" fill="#0A2328"/>
</g>
<defs>
<clipPath id="clip0_169_134">
<rect width="68" height="42" fill="white"/>
</clipPath>
</defs>
</svg>
