<svg width="56" height="56" viewBox="0 0 56 56" fill="none" xmlns="http://www.w3.org/2000/svg">
<circle cx="28" cy="28" r="28" fill="#FFDF5C"/>
<path d="M30.7293 29.5C30.7293 30.2177 30.1506 30.7918 29.4272 30.7918C28.7244 30.7918 28.1457 30.2382 28.125 29.541C28.125 29.5205 28.125 29.5205 28.125 29.5V23H22.8543V29.4795C22.8543 29.5 22.8543 29.5 22.8543 29.5205C22.8543 30.2177 22.2756 30.7918 21.5728 30.7918C20.8494 30.7918 20.2707 30.2177 20.2707 29.5V23H15V29.4795C15 33.0678 17.935 36 21.5728 36C23.0404 36 24.4045 35.5079 25.5 34.7082C26.5955 35.5284 27.9596 36 29.4272 36C33.0443 36 36 33.0883 36 29.4795V23H30.7293V29.5Z" fill="#0A2328"/>
<path d="M39.5 31C38.122 31 37 32.122 37 33.5C37 34.878 38.122 36 39.5 36C40.878 36 42 34.878 42 33.5C42 32.1024 40.8976 31 39.5 31Z" fill="#0A2328"/>
<path d="M42 21.5049C42 20.1243 40.878 19 39.5 19C38.122 19 37 20.1243 37 21.5049V26.4951C37 27.8757 38.122 29 39.5 29C40.878 29 42 27.8757 42 26.4951V21.5049Z" fill="#0A2328"/>
</svg>
