<svg width="63" height="58" viewBox="0 0 63 58" fill="none" xmlns="http://www.w3.org/2000/svg">
<circle cx="35" cy="30" r="28" fill="#FFDF5C"/>
<path d="M37.7293 31.5C37.7293 32.2177 37.1506 32.7918 36.4272 32.7918C35.7244 32.7918 35.1457 32.2382 35.125 31.541C35.125 31.5205 35.125 31.5205 35.125 31.5V25H29.8543V31.4795C29.8543 31.5 29.8543 31.5 29.8543 31.5205C29.8543 32.2177 29.2756 32.7918 28.5728 32.7918C27.8494 32.7918 27.2707 32.2177 27.2707 31.5V25H22V31.4795C22 35.0678 24.935 38 28.5728 38C30.0404 38 31.4045 37.5079 32.5 36.7082C33.5955 37.5284 34.9596 38 36.4272 38C40.0443 38 43 35.0883 43 31.4795V25H37.7293V31.5Z" fill="#0A2328"/>
<path d="M46.5 33C45.122 33 44 34.122 44 35.5C44 36.878 45.122 38 46.5 38C47.878 38 49 36.878 49 35.5C49 34.1024 47.8976 33 46.5 33Z" fill="#0A2328"/>
<path d="M49 23.5049C49 22.1243 47.878 21 46.5 21C45.122 21 44 22.1243 44 23.5049V28.4951C44 29.8757 45.122 31 46.5 31C47.878 31 49 29.8757 49 28.4951V23.5049Z" fill="#0A2328"/>
<circle cx="11" cy="11" r="11" fill="black"/>
</svg>
